<?xml version="1.0" standalone="no"?>
<!DOCTYPE svg PUBLIC "-//W3C//DTD SVG 20010904//EN"
 "http://www.w3.org/TR/2001/REC-SVG-20010904/DTD/svg10.dtd">
<svg version="1.0" xmlns="http://www.w3.org/2000/svg"
 width="379.000000pt" height="379.000000pt" viewBox="0 0 379.000000 379.000000"
 preserveAspectRatio="xMidYMid meet">
<metadata>
Created by potrace 1.11, written by Peter Selinger 2001-2013
</metadata>
<g transform="translate(0.000000,379.000000) scale(0.100000,-0.100000)"
fill="#000000" stroke="none">
<path d="M2226 2620 c-122 -22 -248 -84 -318 -157 l-38 -39 41 -54 c45 -59 82
-135 92 -187 9 -45 2 -41 -27 15 -26 50 -92 132 -107 132 -4 0 -6 -14 -2 -32
4 -18 2 -29 -3 -25 -6 3 -11 -3 -11 -14 -2 -21 13 -26 20 -6 2 6 8 9 12 4 5
-4 0 -13 -10 -21 -17 -12 -18 -17 -7 -41 8 -18 9 -32 3 -38 -6 -6 -9 -2 -8 9
1 10 -5 19 -13 19 -16 1 -16 7 -4 39 6 16 4 18 -20 14 -23 -5 -27 -3 -23 13 3
11 -1 22 -8 27 -7 4 -16 18 -20 31 -5 16 -4 21 4 17 6 -4 11 -2 11 3 0 17 -18
13 -29 -6 -5 -10 -13 -15 -16 -11 -14 14 -33 -16 -23 -37 9 -20 9 -20 -6 -1
-9 11 -14 30 -12 42 3 16 0 21 -9 18 -10 -4 -13 2 -11 23 5 40 5 40 21 19 14
-18 15 -18 34 5 28 33 26 46 -9 64 -24 12 -30 22 -31 48 -1 48 -22 108 -41
121 -25 15 -82 -18 -119 -69 -28 -40 -32 -41 -109 -53 -94 -13 -209 -63 -266
-114 -36 -33 -45 -36 -112 -40 -101 -5 -109 -25 -56 -131 18 -37 21 -53 14
-72 -22 -59 -32 -205 -20 -312 21 -198 78 -368 171 -504 43 -64 179 -213 211
-230 15 -8 16 -5 7 23 -16 58 -10 130 15 184 41 88 117 129 236 128 68 0 89
-6 225 -61 221 -90 250 -97 390 -96 139 1 247 25 333 74 70 40 63 14 -9 -29
-86 -52 -168 -73 -304 -79 -146 -7 -221 9 -414 88 -102 42 -140 53 -202 57
-118 7 -184 -23 -220 -102 -86 -190 115 -361 476 -405 454 -56 829 136 1033
527 149 288 159 587 27 857 -87 179 -230 300 -415 351 -67 18 -256 26 -324 14z
m-728 -248 c2 -12 8 -22 13 -22 5 0 9 -7 9 -15 0 -8 -4 -15 -9 -15 -11 0 -21
25 -21 50 0 10 -5 21 -10 23 -6 3 -5 4 2 3 7 -1 14 -12 16 -24z m119 3 c0 -10
-6 -14 -14 -10 -8 3 -18 5 -21 6 -4 0 2 4 13 9 11 5 20 9 21 9 0 1 1 -6 1 -14z
m-77 -15 c0 -6 11 -8 25 -4 19 5 25 2 25 -9 0 -21 -17 -31 -24 -15 -5 10 -7
10 -12 1 -8 -18 -27 -16 -20 2 3 8 1 15 -4 15 -6 0 -10 5 -10 10 0 6 5 10 10
10 6 0 10 -5 10 -10z m-105 -49 c-7 -35 -8 -35 -36 -21 -27 15 -24 33 6 28 19
-4 23 -2 15 7 -8 9 -7 14 2 18 19 6 21 2 13 -32z m35 35 c0 -3 -4 -8 -10 -11
-5 -3 -10 -1 -10 4 0 6 5 11 10 11 6 0 10 -2 10 -4z m-80 -67 c0 -14 -17 -10
-23 5 -4 10 -1 13 9 9 7 -3 14 -9 14 -14z m10 -39 c0 -5 -2 -10 -4 -10 -3 0
-8 5 -11 10 -3 6 -1 10 4 10 6 0 11 -4 11 -10z m1090 -15 c0 -8 -4 -15 -10
-15 -5 0 -7 7 -4 15 4 8 8 15 10 15 2 0 4 -7 4 -15z m9 -46 c-14 -8 -29 -3
-29 11 0 4 9 6 21 3 15 -4 17 -8 8 -14z m61 -5 c0 -8 -4 -14 -9 -14 -6 0 -9 9
-8 19 1 22 17 18 17 -5z m-245 6 c3 -6 -1 -7 -9 -4 -18 7 -21 14 -7 14 6 0 13
-4 16 -10z"/>
<path d="M1810 2369 c0 -5 5 -7 10 -4 6 3 10 8 10 11 0 2 -4 4 -10 4 -5 0 -10
-5 -10 -11z"/>
</g>
</svg>
